#N canvas 726 192 502 311 10;
#X text 189 12 Image-based knob.;
#X text 62 27 Work with .gif and .png files.(did not check other formats).
;
#X text 53 42 Add an object and change parameters using the settings
window or, f 64;
#X text 151 57 the methods described below.;
#X obj 135 172 n_knob default.gif 1 33 -1 1 0 0 256 \\\$0-s \\\$0-r
Knob 11 0 -8 0 0 0 1 3 11 -4 38 0;
#N canvas 49 160 513 399 label 0;
#X obj 129 187 n_knob default.gif 1 33 0 1 0.01 0.5 256 empty empty
Knob 11 15 -8 0 0 0 0 5 11 0 42 0;
#X msg 129 47 label Knob;
#X msg 136 70 label empty;
#X msg 158 113 labpar 11 15 -8 22;
#X msg 146 91 labpar 22 20 -10 13;
#X text 25 246 label, f 77;
#X text 73 246 <symbol> - set label. "empty" disable this., f 69;
#X text 25 257 labpar <float> <float> <float> <float> - set label parametres:
, f 77;
#X text 73 268 |, f 69;
#X text 121 268 |, f 61;
#X text 169 268 |, f 53;
#X text 217 268 |, f 45;
#X text 73 279 |, f 69;
#X text 121 279 |, f 61;
#X text 169 279 |, f 53;
#X text 217 279 label color, f 45;
#X text 73 290 |, f 69;
#X text 121 290 |, f 61;
#X text 169 290 label offset y, f 53;
#X text 73 301 |, f 69;
#X text 121 301 label offset x, f 61;
#X text 73 312 font size(>4), f 69;
#X connect 1 0 0 0;
#X connect 2 0 0 0;
#X connect 3 0 0 0;
#X connect 4 0 0 0;
#X restore 415 128 pd label;
#N canvas 232 95 557 472 image 0;
#X obj 101 250 n_knob ex.slider.50.png 0 50 0 1 0.01 0.5 256 empty
empty empty 11 0 -8 0 0.45 0 0 5 11 0 42 0;
#X text 90 30 When you download the image file \, n_knob searches in
two places. This is the current directory \, and the directory where
the library is located. The image must have a supported format(gif
\, png) \, and when displaying will be divided into frames. The number
of frames is indicated in the message.There may be a horizontal or
vertical orientation(0 - horizontal \, 1 - vertical).;
#X text 285 152 vertical orientation.;
#X text 315 224 horizontal orientation.;
#X text 437 131 ^;
#X text 437 141 |;
#X text 437 151 |;
#X text 437 161 |;
#X text 437 171 v;
#X text 363 244 <--->;
#X floatatom 101 292 5 0 0 0 - - - 0;
#X msg 101 146 image default.gif 1 33;
#X msg 111 166 image default.png 1 65;
#X msg 125 202 image ex.slider.50.png 0 50;
#X msg 133 222 image default.gif 0 33;
#X text 99 351 |, f 66;
#X text 153 351 |, f 57;
#X text 201 351 |, f 49;
#X text 99 362 |, f 66;
#X text 153 362 |, f 57;
#X text 201 362 frames in image(>0), f 49;
#X text 99 373 |, f 66;
#X text 153 373 orientation image(0 - hor. \, 1 - ver.), f 57;
#X text 99 384 filename, f 66;
#X text 33 340 image <symbol> <float> <float> - load image. arguments:
, f 77;
#X connect 0 0 10 0;
#X connect 11 0 0 0;
#X connect 12 0 0 0;
#X connect 13 0 0 0;
#X connect 14 0 0 0;
#X restore 271 88 pd image \, frames and orientation;
#N canvas 149 100 619 388 knob 0;
#X text 78 35 knobpar <float> <float> <float> <float> <float> - set
knob parametres:, f 77;
#X text 132 46 |, f 68;
#X text 180 46 |, f 60;
#X text 228 46 |, f 52;
#X text 276 46 |, f 44;
#X text 324 46 |, f 36;
#X text 132 57 |, f 68;
#X text 180 57 |, f 60;
#X text 228 57 |, f 52;
#X text 276 57 |, f 44;
#X text 324 57 resolution, f 36;
#X text 132 68 |, f 68;
#X text 180 68 |, f 60;
#X text 228 68 |, f 52;
#X text 276 68 default state, f 44;
#X text 132 79 |, f 68;
#X text 180 79 |, f 60;
#X text 228 79 step, f 52;
#X text 132 90 |, f 68;
#X text 180 90 max, f 60;
#X text 132 101 min, f 68;
#X text 78 112 min \, max \, step - minimum \, maximum value and step.
, f 77;
#X text 78 123 resolution - number of pixels that need to be leaning
with the mouse, f 77;
#X text 78 134 to get the entire state range., f 77;
#X obj 161 274 n_knob default.gif 1 33 -1 1 0 0 128 empty empty empty
11 0 -8 0 -0.453125 0 1 5 11 8 42 0;
#X msg 161 185 knobpar -1 1 0 0 128;
#X floatatom 161 338 5 0 0 0 - - - 0;
#X msg 171 205 knobpar 100 -200 5 50 256;
#X connect 24 0 26 0;
#X connect 25 0 24 0;
#X connect 27 0 24 0;
#X restore 356 168 pd knob parametres;
#N canvas 127 202 566 379 numeric 0;
#X obj 49 188 n_knob default.gif 1 33 -1 1 0.02 0 256 empty empty empty
11 0 -4 65793 0 0 1 4 14 -12 40 0;
#X obj 49 15 tgl 15 1 empty empty empty 17 7 0 10 #fcfcfc #000000 #000000
1 1;
#X msg 49 37 numvis \$1;
#X text 79 10 switch numuric out visible;
#X text 53 260 numvis - visible on hide numeric redout;
#X text 73 302 |, f 69;
#X text 121 302 |, f 61;
#X text 169 302 |, f 53;
#X text 73 313 |, f 69;
#X text 121 313 |, f 61;
#X text 169 313 |, f 53;
#X text 73 324 |, f 69;
#X text 121 324 |, f 61;
#X text 73 335 |, f 69;
#X text 73 292 |, f 69;
#X text 121 292 |, f 61;
#X text 169 292 |, f 53;
#X text 25 274 numpar <float> <float> <float> <float> <float> - set
label parametres:, f 77;
#X text 217 292 | |, f 45;
#X text 217 302 | color, f 45;
#X text 217 313 offset y, f 45;
#X text 169 324 offset x, f 53;
#X text 121 335 font size (>4), f 61;
#X text 73 346 width (>=1), f 69;
#X msg 57 58 numpar 4 14 -12 40 22;
#X msg 68 78 numpar 3 11 -4 42 13;
#X msg 80 96 numpar 5 11 34 14 26;
#X connect 1 0 2 0;
#X connect 2 0 0 0;
#X connect 24 0 0 0;
#X connect 25 0 0 0;
#X connect 26 0 0 0;
#X restore 404 148 pd numeric;
#N canvas 578 135 388 532 example: 0;
#X obj 109 91 n_knob default.gif 1 33 0 122 0.01 0.5 256 empty empty
Pitch 11 0 -8 0 46.59 1 0 5 11 0 42 0;
#X floatatom 109 128 5 0 0 0 - - - 0;
#X obj 109 148 mtof;
#X obj 109 207 phasor~;
#X obj 110 242 lop~;
#X obj 173 126 n_knob default.gif 1 33 0 122 0.01 0.5 256 empty empty
Frequency 11 0 -8 0 36.7 1 0 5 11 0 42 0;
#X floatatom 173 166 5 0 0 0 - - - 0;
#X obj 173 183 mtof;
#X obj 153 278 n_knob default.gif 1 33 0 1 0.01 0.5 256 empty empty
Amplitude 11 0 -8 0 0.57 1 0 5 11 0 42 0;
#X obj 110 372 *~;
#X floatatom 153 315 5 0 0 0 - - - 0;
#X msg 173 201 \$1 30;
#X obj 173 219 line;
#X msg 109 170 \$1 30;
#X obj 109 188 line~;
#X msg 153 332 \$1 30;
#X obj 153 350 line~;
#X obj 132 398 tgl 15 0 empty empty sound 17 7 0 10 #fcfcfc #000000
#000000 0 1;
#X obj 111 416 *~ 0;
#X obj 111 437 dac~;
#X connect 0 0 1 0;
#X connect 1 0 2 0;
#X connect 2 0 13 0;
#X connect 3 0 4 0;
#X connect 4 0 9 0;
#X connect 5 0 6 0;
#X connect 6 0 7 0;
#X connect 7 0 11 0;
#X connect 8 0 10 0;
#X connect 9 0 18 0;
#X connect 10 0 15 0;
#X connect 11 0 12 0;
#X connect 12 0 4 1;
#X connect 13 0 14 0;
#X connect 14 0 3 0;
#X connect 15 0 16 0;
#X connect 16 0 9 1;
#X connect 17 0 18 1;
#X connect 18 0 19 0;
#X connect 18 0 19 1;
#X restore 28 253 pd example: default.gif;
#N canvas 184 98 450 300 example: 0;
#X obj 122 142 n_knob knob_24x24x65.png 1 65 0 1 0.01 0.5 256 empty
empty 0 12 8 -8 65793 0.06 0 1 4 10 -8 32 6316128;
#X obj 162 142 n_knob knob_24x24x65.png 1 65 0 1 0.01 0.5 256 empty
empty 1 12 8 -8 65793 0.06 0 1 4 10 -8 32 6316128;
#X obj 202 142 n_knob knob_24x24x65.png 1 65 0 1 0.01 0.5 256 empty
empty 2 12 8 -8 65793 0.13 0 1 4 10 -8 32 6316128;
#X obj 242 142 n_knob knob_24x24x65.png 1 65 0 1 0.01 0.5 256 empty
empty 3 12 8 -8 65793 0.89 0 1 4 10 -8 32 6316128;
#X floatatom 68 166 5 0 0 0 - - - 0;
#X floatatom 319 166 5 0 0 0 - - - 0;
#X connect 0 0 4 0;
#X connect 3 0 5 0;
#X restore 28 275 pd example: knob_24x24x65.png;
#N canvas 0 16 559 435 send/receive 0;
#X text 72 62 send, f 77;
#X text 120 62 <symbol> - set send. "empty" disable this., f 69;
#X text 72 73 receive <symbol> - set receive. "empty" disable this.
, f 77;
#X msg 105 204 send a;
#X obj 105 280 n_knob default.gif 1 33 0 1 0.01 0.5 256 b empty empty
11 0 -8 0 0.69 0 0 5 11 0 42 0;
#X obj 208 272 r a;
#X floatatom 208 295 5 0 0 0 - - - 0;
#X floatatom 258 295 5 0 0 0 - - - 0;
#X obj 258 272 r b;
#X msg 115 224 send b;
#X msg 125 244 send empty;
#X obj 345 280 n_knob default.gif 1 33 0 1 0.01 0.5 256 empty empty
empty 11 0 -8 0 0.69 0 0 5 11 0 42 0;
#X msg 345 204 receive a;
#X msg 355 224 receive b;
#X msg 365 244 receive empty;
#X connect 3 0 4 0;
#X connect 5 0 6 0;
#X connect 8 0 7 0;
#X connect 9 0 4 0;
#X connect 10 0 4 0;
#X connect 12 0 11 0;
#X connect 13 0 11 0;
#X connect 14 0 11 0;
#X restore 374 188 pd send/receive;
#N canvas 515 218 576 394 set/bang/float/default/init 0;
#X text 62 23 <float> - set state value and send to outlet.;
#X text 96 41 set <float> - set state value.;
#X text 81 60 <bang> - send to outlet state value.;
#X text 85 81 default - set default state value.;
#X text 38 103 init <float> - if > 0 \, on load n_knob send to outlet
state value., f 65;
#X obj 140 236 n_knob default.gif 1 33 0 127 1 64 256 empty empty empty
11 0 -8 0 64 1 0 5 11 0 42 0;
#X floatatom 140 166 5 0 0 0 - - - 0;
#X floatatom 140 313 5 0 0 0 - - - 0;
#X obj 95 178 bng 15 250 50 0 empty empty empty 17 7 0 10 #fcfcfc #000000
#000000;
#X obj 160 288 print;
#X msg 186 168 default;
#X msg 244 185 init 0;
#X msg 244 205 init 1;
#X connect 5 0 7 0;
#X connect 5 0 9 0;
#X connect 6 0 5 0;
#X connect 8 0 5 0;
#X connect 10 0 5 0;
#X connect 11 0 5 0;
#X connect 12 0 5 0;
#X restore 283 108 pd set/bang/float/default/init;
#N canvas 0 16 523 297 mouse 0;
#X text 58 59 double click;
#X text 110 86 - set default state value and send to outlet., f 44
;
#X obj 220 193 n_knob default.gif 1 33 0 1 0.01 0.5 256 empty empty
empty 11 -4 -8 0 0.5 0 1 4 11 -6 42 0;
#X msg 220 153 default;
#X text 277 154 or doubleclick.;
#X connect 3 0 2 0;
#X restore 417 208 pd mouse;
#X obj 236 168 r \$0-s;
#X floatatom 236 191 5 0 0 0 - - - 0;
#X floatatom 22 171 5 0 0 0 - - - 0;
#X obj 22 193 s \$0-r;
#X connect 14 0 15 0;
#X connect 16 0 17 0;
